<?xml version="1.0" standalone="no"?>
<!DOCTYPE svg PUBLIC "-//W3C//DTD SVG 20010904//EN"
 "http://www.w3.org/TR/2001/REC-SVG-20010904/DTD/svg10.dtd">
<svg version="1.0" xmlns="http://www.w3.org/2000/svg"
 width="411.000000pt" height="411.000000pt" viewBox="0 0 411.000000 411.000000"
 preserveAspectRatio="xMidYMid meet">
<metadata>
Created by potrace 1.14, written by Peter Selinger 2001-2017
</metadata>
<g transform="translate(0.000000,411.000000) scale(0.100000,-0.100000)"
fill="#000000" stroke="none">
<path d="M1665 3899 c-87 -8 -164 -19 -225 -33 -97 -22 -127 -30 -139 -40 -8
-6 -17 -10 -20 -9 -20 8 -271 -111 -271 -128 0 -5 -6 -9 -14 -9 -8 0 -22 -10
-31 -22 -8 -13 -18 -22 -20 -20 -12 6 -24 -1 -60 -35 -22 -21 -40 -35 -40 -33
-1 11 -55 -39 -55 -50 0 -6 -4 -9 -9 -6 -9 6 -198 -185 -228 -230 -10 -16 -25
-36 -33 -45 -8 -8 -21 -24 -28 -35 -7 -10 -28 -41 -47 -69 -18 -27 -32 -52
-30 -54 2 -2 16 6 31 18 15 11 33 21 40 21 8 0 14 4 14 10 0 5 3 9 8 9 4 -1
10 0 15 1 4 1 10 3 15 4 4 1 30 9 57 18 75 25 165 39 257 39 85 0 118 10 118
34 0 15 3 24 34 82 21 41 21 57 -1 48 -46 -20 -293 -103 -293 -98 0 9 28 32
32 27 3 -2 26 4 51 15 25 11 48 17 51 14 3 -3 8 1 12 10 3 9 12 13 19 11 7 -3
16 -1 20 5 3 6 15 11 26 11 10 0 19 4 19 8 0 13 94 21 107 9 3 -3 -6 -29 -21
-56 -14 -28 -26 -57 -26 -66 0 -8 -4 -15 -9 -15 -10 0 -24 -30 -18 -37 5 -5
31 -10 95 -18 l51 -6 -18 43 c-22 51 -34 80 -36 91 -2 4 -3 8 -5 10 -6 8 -7
38 0 42 8 5 36 -59 61 -140 16 -50 27 -63 59 -67 14 -2 30 -6 35 -9 6 -4 40
-16 78 -28 37 -12 98 -35 135 -52 99 -45 196 -93 202 -99 3 -3 35 -21 72 -40
38 -19 68 -38 68 -42 0 -5 5 -8 10 -8 17 0 236 -150 365 -250 66 -52 155 -118
198 -147 78 -53 177 -108 177 -98 0 3 12 -1 28 -9 38 -20 86 -28 162 -29 102
0 163 19 246 80 146 106 215 265 209 478 -1 61 -6 126 -10 145 -17 86 -91 270
-108 270 -4 0 -6 4 -3 8 5 8 -53 90 -117 166 -52 62 -152 153 -179 162 -10 3
-18 9 -18 14 0 22 -359 178 -374 162 -3 -3 -6 0 -6 7 0 7 -6 11 -14 8 -8 -3
-17 -3 -20 1 -4 3 -14 7 -22 8 -9 2 -37 7 -63 13 -49 11 -99 19 -171 27 -73 8
-319 10 -395 3z m-410 -600 c5 -5 -5 -4 -23 2 -17 6 -32 13 -32 16 0 7 43 -8
55 -18z m-560 -39 c-3 -5 -13 -10 -21 -10 -8 0 -12 5 -9 10 3 6 13 10 21 10 8
0 12 -4 9 -10z"/>
<path d="M2660 3876 c0 -2 7 -7 16 -10 8 -3 12 -2 9 4 -6 10 -25 14 -25 6z"/>
<path d="M2740 3837 c25 -12 47 -25 48 -29 2 -5 10 -8 17 -8 7 0 15 -4 17 -8
2 -5 19 -19 39 -33 78 -52 217 -181 275 -255 16 -20 41 -51 56 -68 15 -17 30
-39 34 -48 3 -10 10 -18 15 -18 5 0 9 -6 9 -14 0 -8 3 -16 8 -18 17 -7 136
-244 147 -293 2 -5 11 -37 21 -70 10 -33 19 -62 19 -65 5 -20 19 -89 21 -105
1 -11 3 -20 4 -20 4 0 10 -87 11 -165 2 -91 -8 -191 -22 -227 -5 -13 -7 -23
-4 -23 8 0 -45 -141 -72 -193 -38 -72 -110 -167 -158 -208 -22 -19 -48 -41
-58 -50 -10 -9 -49 -33 -88 -52 l-70 -36 -72 26 c-40 14 -94 36 -122 48 -27
12 -67 29 -87 36 -21 7 -38 17 -38 22 0 4 -4 6 -9 3 -5 -3 -14 1 -21 9 -7 8
-21 15 -31 15 -11 0 -19 5 -19 12 0 6 -3 8 -6 5 -4 -4 -19 2 -34 13 -16 11
-31 20 -35 20 -4 0 -34 18 -65 39 -32 22 -81 52 -108 66 -28 15 -56 33 -63 41
-6 8 -17 14 -24 14 -7 0 -16 7 -19 16 -3 8 -10 13 -15 10 -5 -3 -11 1 -15 9
-3 8 -10 15 -16 15 -6 0 -18 6 -25 13 -33 29 -45 37 -54 37 -6 0 -15 8 -20 18
-6 9 -11 13 -11 7 0 -6 -3 -6 -8 1 -14 20 -79 64 -85 57 -4 -3 -7 -2 -7 4 0 5
-21 25 -47 43 -27 19 -49 38 -51 42 -2 4 -10 8 -18 8 -8 0 -14 3 -14 8 0 8
-56 47 -67 47 -5 0 -21 12 -37 27 -16 16 -32 28 -37 28 -4 0 -14 6 -21 13 -22
21 -198 127 -198 119 0 -4 -4 -2 -8 4 -19 29 -381 198 -451 211 -14 2 -31 9
-38 15 -7 6 -13 8 -13 5 0 -3 -15 -1 -32 4 -18 6 -43 12 -55 15 -13 2 -35 7
-50 10 -46 9 -104 14 -183 15 -201 2 -347 -69 -444 -216 -59 -87 -117 -303
-133 -490 -13 -150 -7 -387 12 -486 3 -13 7 -41 11 -63 3 -22 7 -43 9 -46 2
-3 6 -23 9 -45 6 -37 20 -90 33 -125 3 -8 7 -21 9 -28 1 -8 6 -21 10 -30 4 -9
8 -24 10 -32 2 -8 7 -23 12 -35 30 -62 45 -101 45 -112 0 -7 4 -13 8 -13 4 0
14 -17 23 -37 31 -73 107 -203 119 -203 4 0 7 -6 7 -13 0 -7 13 -27 29 -44 16
-18 26 -34 23 -37 -3 -3 -1 -6 5 -6 6 0 13 -9 16 -21 4 -13 10 -18 18 -13 7 4
10 3 5 -4 -3 -6 2 -15 11 -21 10 -6 15 -11 11 -11 -11 0 17 -32 103 -119 68
-69 94 -92 194 -176 33 -28 191 -135 199 -135 3 0 22 -11 42 -25 20 -14 89
-50 153 -81 64 -31 133 -64 153 -74 38 -19 56 -17 35 4 -7 7 -43 27 -82 46
-38 18 -71 37 -73 42 -2 4 -8 8 -13 8 -11 0 -72 42 -77 53 -2 4 -8 7 -12 7 -9
0 -99 81 -174 156 -47 47 -100 111 -135 163 -14 20 -27 38 -30 41 -10 9 -67
104 -82 138 -7 17 -17 32 -21 32 -5 0 -8 8 -8 18 0 19 -39 74 -40 55 0 -7 -3
-12 -7 -11 -12 3 -87 -32 -94 -43 -4 -6 -16 -8 -28 -4 -17 5 -19 10 -11 24 5
10 19 21 30 24 13 3 18 1 13 -6 -4 -7 0 -8 13 -3 10 5 31 12 46 16 48 15 49
17 18 100 -16 44 -27 80 -25 80 3 0 0 11 -5 26 -6 14 -12 37 -15 52 -3 15 -7
38 -10 52 -15 77 -22 269 -12 330 2 14 7 45 11 70 10 60 35 145 51 177 8 15
12 30 9 35 -3 4 1 11 10 14 8 3 18 18 21 34 3 16 13 31 21 34 9 3 13 10 9 15
-9 16 185 205 233 226 23 10 42 22 42 26 0 6 30 17 67 25 7 1 15 -2 19 -7 3
-5 9 -7 14 -4 5 3 11 1 15 -5 3 -5 16 -10 29 -10 12 0 31 -7 42 -15 10 -8 25
-15 32 -15 15 0 194 -81 202 -91 3 -3 22 -12 43 -20 20 -7 37 -16 37 -20 0 -4
8 -9 18 -12 36 -12 282 -167 282 -178 0 -5 3 -8 8 -7 9 3 88 -47 116 -73 11
-11 26 -19 33 -19 7 0 13 -4 13 -9 0 -5 25 -26 55 -46 30 -21 55 -43 55 -48 0
-6 3 -8 6 -5 5 6 42 -19 180 -122 23 -16 47 -30 54 -30 7 0 10 -3 7 -7 -4 -3
2 -11 12 -17 25 -14 114 -69 171 -106 25 -16 70 -42 100 -58 30 -16 76 -41
103 -55 26 -14 47 -23 47 -20 0 3 6 0 14 -6 28 -23 222 -96 254 -96 22 1 32
-3 32 -14 0 -8 3 -11 6 -8 4 3 14 2 24 -3 9 -5 30 -11 46 -14 72 -13 91 -18
124 -34 19 -8 44 -17 55 -18 30 -3 66 7 59 17 -3 5 -1 9 3 9 5 0 14 20 21 45
7 25 17 45 23 45 5 0 7 5 4 10 -3 6 -1 10 4 10 6 0 11 9 11 20 0 18 19 30 21
13 0 -5 2 -18 5 -31 2 -14 0 -21 -6 -17 -5 3 -10 -3 -10 -15 0 -11 -7 -23 -15
-26 -8 -4 -13 -9 -11 -13 2 -3 -1 -19 -8 -36 -10 -24 -9 -35 5 -65 29 -60 33
-97 12 -104 -33 -10 -133 -24 -198 -28 -18 -1 -141 10 -176 16 -74 13 -86 15
-144 31 -91 24 -177 56 -253 94 -24 11 -50 21 -57 21 -7 0 -15 3 -17 8 -1 4
-34 22 -73 40 -38 19 -90 46 -115 60 -25 15 -48 25 -52 24 -5 -1 -8 3 -8 9 0
5 -4 8 -9 5 -5 -4 -11 -3 -13 1 -1 5 -21 20 -43 34 -106 69 -152 100 -175 118
-14 12 -31 21 -38 21 -7 0 -10 4 -7 10 3 5 0 10 -7 10 -7 0 -28 13 -47 28 -42
34 -113 90 -126 100 -6 4 -35 26 -66 49 -31 24 -59 43 -63 43 -4 0 -15 8 -26
18 -18 17 -143 83 -155 82 -3 0 -21 7 -41 15 -20 8 -40 13 -44 10 -5 -3 -11
-1 -15 5 -10 16 -195 7 -206 -11 -5 -8 -9 -10 -9 -6 0 17 -122 -58 -169 -104
-49 -50 -99 -133 -126 -209 -44 -124 -36 -332 19 -488 21 -60 89 -192 98 -192
4 0 8 -5 8 -11 0 -27 214 -266 223 -249 1 3 16 -7 32 -22 16 -16 33 -28 37
-28 3 0 13 -6 21 -14 23 -23 191 -103 269 -128 40 -13 75 -26 76 -31 2 -4 8
-4 14 -1 5 4 20 1 31 -5 23 -12 146 -39 212 -47 54 -6 312 -6 405 0 104 7 153
13 252 35 32 7 60 12 63 12 29 -3 330 127 345 149 3 4 15 10 28 14 12 4 22 12
22 17 0 5 5 9 11 9 21 0 184 135 279 230 164 166 219 239 213 285 -4 28 -3 29
10 11 13 -18 15 -17 34 10 34 49 36 54 17 47 -13 -5 -15 -3 -9 8 6 11 5 11 -5
2 -10 -9 -16 -8 -28 4 -11 11 -17 12 -20 4 -3 -8 -9 -6 -19 6 -8 10 -11 12 -7
3 4 -8 -5 -4 -20 10 -14 14 -28 36 -31 49 -2 12 -7 31 -10 41 -11 33 -17 65
-17 83 1 10 -4 15 -10 11 -7 -4 -8 -2 -4 5 6 9 11 9 22 0 11 -9 14 -9 14 0 0
7 5 9 10 6 6 -4 8 -10 5 -15 -3 -5 4 -7 15 -5 11 2 20 0 20 -6 0 -5 -4 -9 -10
-9 -5 0 -10 -5 -10 -11 0 -5 5 -7 10 -4 6 3 10 1 10 -4 0 -6 5 -11 11 -11 5 0
7 4 4 10 -3 5 0 7 9 4 10 -4 15 2 18 17 2 17 10 23 33 25 40 3 85 21 85 34 0
5 5 10 11 10 7 0 18 8 26 18 9 11 12 12 8 2 -4 -8 3 -4 14 10 12 15 21 19 21
11 0 -11 3 -11 17 0 10 8 14 9 10 2 -4 -6 -3 -14 2 -17 11 -7 23 48 14 70 -5
13 -7 13 -14 2 -7 -10 -9 -8 -9 7 -1 18 -1 19 -11 2 -7 -11 -18 -16 -35 -13
-13 3 -24 1 -24 -4 0 -5 -7 -7 -15 -4 -8 4 -15 1 -15 -6 0 -7 -6 -10 -14 -7
-7 3 -18 1 -23 -4 -6 -6 -28 -12 -49 -15 -21 -3 -42 -10 -46 -17 -6 -9 -8 -8
-8 3 0 13 -1 13 -10 0 -5 -8 -10 -10 -10 -5 0 17 35 42 58 40 11 -1 19 2 17 6
-3 4 5 10 18 14 12 4 28 9 35 11 6 2 18 5 25 7 6 1 17 6 24 10 6 4 23 8 37 9
14 1 26 5 26 9 0 9 21 6 38 -5 7 -4 16 -5 19 -2 4 3 1 6 -5 6 -7 0 -12 4 -12
10 0 5 6 7 14 4 11 -4 21 7 31 36 4 12 17 47 26 68 6 17 6 21 -2 16 -8 -4 -8
-1 -1 12 10 20 26 105 38 209 9 69 9 338 1 405 -9 75 -18 133 -27 175 -5 22
-12 56 -15 75 -7 43 -33 129 -46 152 -5 10 -9 24 -9 31 0 30 -125 297 -142
305 -5 2 -8 9 -8 16 0 14 -59 107 -75 118 -6 5 -6 8 0 8 6 0 2 5 -7 11 -10 5
-18 15 -18 20 0 6 -28 45 -62 87 -103 126 -163 190 -248 262 -29 25 -59 50
-65 57 -60 59 -432 273 -475 273 -11 0 -20 4 -20 8 0 4 -10 8 -22 9 -16 1 -8
-6 22 -20z m674 -2502 c-6 -13 -10 -16 -29 -15 -3 0 -19 -7 -35 -15 -17 -9
-30 -13 -30 -9 0 4 -6 1 -13 -5 -8 -6 -22 -12 -33 -14 -10 -2 -32 -9 -47 -15
-16 -7 -34 -12 -41 -12 -6 0 -17 -5 -24 -12 -7 -7 -12 -8 -12 -4 0 5 -6 3 -14
-3 -9 -8 -16 -8 -20 -2 -4 5 -2 12 3 15 18 11 196 79 241 92 60 16 60 16 54
-1z m-311 -109 c4 -10 1 -13 -8 -9 -8 3 -12 9 -9 14 7 12 11 11 17 -5z"/>
</g>
</svg>
